<svg width="396" height="96" viewBox="0 0 396 96" fill="none" xmlns="http://www.w3.org/2000/svg">
<rect x="96" y="3" width="300" height="90" fill="white"/>
<path d="M116.941 73V21.8125H133.676C139.23 21.8125 143.402 22.9609 146.191 25.2578C149.004 27.5547 150.41 30.9531 150.41 35.4531C150.41 37.8438 149.73 39.9648 148.371 41.8164C147.012 43.6445 145.16 45.0625 142.816 46.0703C145.582 46.8438 147.762 48.3203 149.355 50.5C150.973 52.6562 151.781 55.2344 151.781 58.2344C151.781 62.8281 150.293 66.4375 147.316 69.0625C144.34 71.6875 140.133 73 134.695 73H116.941ZM123.691 49.0586V67.4805H134.836C137.977 67.4805 140.449 66.6719 142.254 65.0547C144.082 63.4141 144.996 61.1641 144.996 58.3047C144.996 52.1406 141.645 49.0586 134.941 49.0586H123.691ZM123.691 43.6445H133.887C136.84 43.6445 139.195 42.9062 140.953 41.4297C142.734 39.9531 143.625 37.9492 143.625 35.418C143.625 32.6055 142.805 30.5664 141.164 29.3008C139.523 28.0117 137.027 27.3672 133.676 27.3672H123.691V43.6445ZM176.566 73.7031C171.41 73.7031 167.215 72.0156 163.98 68.6406C160.746 65.2422 159.129 60.707 159.129 55.0352V53.8398C159.129 50.0664 159.844 46.7031 161.273 43.75C162.727 40.7734 164.742 38.4531 167.32 36.7891C169.922 35.1016 172.734 34.2578 175.758 34.2578C180.703 34.2578 184.547 35.8867 187.289 39.1445C190.031 42.4023 191.402 47.0664 191.402 53.1367V55.8438H165.633C165.727 59.5938 166.816 62.6289 168.902 64.9492C171.012 67.2461 173.684 68.3945 176.918 68.3945C179.215 68.3945 181.16 67.9258 182.754 66.9883C184.348 66.0508 185.742 64.8086 186.938 63.2617L190.91 66.3555C187.723 71.2539 182.941 73.7031 176.566 73.7031ZM175.758 39.6016C173.133 39.6016 170.93 40.5625 169.148 42.4844C167.367 44.3828 166.266 47.0547 165.844 50.5H184.898V50.0078C184.711 46.7031 183.82 44.1484 182.227 42.3438C180.633 40.5156 178.477 39.6016 175.758 39.6016ZM207.785 25.75V34.9609H214.887V39.9883H207.785V63.5781C207.785 65.1016 208.102 66.25 208.734 67.0234C209.367 67.7734 210.445 68.1484 211.969 68.1484C212.719 68.1484 213.75 68.0078 215.062 67.7266V73C213.352 73.4688 211.688 73.7031 210.07 73.7031C207.164 73.7031 204.973 72.8242 203.496 71.0664C202.02 69.3086 201.281 66.8125 201.281 63.5781V39.9883H194.355V34.9609H201.281V25.75H207.785ZM231.34 25.75V34.9609H238.441V39.9883H231.34V63.5781C231.34 65.1016 231.656 66.25 232.289 67.0234C232.922 67.7734 234 68.1484 235.523 68.1484C236.273 68.1484 237.305 68.0078 238.617 67.7266V73C236.906 73.4688 235.242 73.7031 233.625 73.7031C230.719 73.7031 228.527 72.8242 227.051 71.0664C225.574 69.3086 224.836 66.8125 224.836 63.5781V39.9883H217.91V34.9609H224.836V25.75H231.34ZM261.855 73.7031C256.699 73.7031 252.504 72.0156 249.27 68.6406C246.035 65.2422 244.418 60.707 244.418 55.0352V53.8398C244.418 50.0664 245.133 46.7031 246.562 43.75C248.016 40.7734 250.031 38.4531 252.609 36.7891C255.211 35.1016 258.023 34.2578 261.047 34.2578C265.992 34.2578 269.836 35.8867 272.578 39.1445C275.32 42.4023 276.691 47.0664 276.691 53.1367V55.8438H250.922C251.016 59.5938 252.105 62.6289 254.191 64.9492C256.301 67.2461 258.973 68.3945 262.207 68.3945C264.504 68.3945 266.449 67.9258 268.043 66.9883C269.637 66.0508 271.031 64.8086 272.227 63.2617L276.199 66.3555C273.012 71.2539 268.23 73.7031 261.855 73.7031ZM261.047 39.6016C258.422 39.6016 256.219 40.5625 254.438 42.4844C252.656 44.3828 251.555 47.0547 251.133 50.5H270.188V50.0078C270 46.7031 269.109 44.1484 267.516 42.3438C265.922 40.5156 263.766 39.6016 261.047 39.6016ZM302.637 40.7969C301.652 40.6328 300.586 40.5508 299.438 40.5508C295.172 40.5508 292.277 42.3672 290.754 46V73H284.25V34.9609H290.578L290.684 39.3555C292.816 35.957 295.84 34.2578 299.754 34.2578C301.02 34.2578 301.98 34.4219 302.637 34.75V40.7969ZM315.715 73H309.211V34.9609H315.715V73ZM308.684 24.8711C308.684 23.8164 309 22.9258 309.633 22.1992C310.289 21.4727 311.25 21.1094 312.516 21.1094C313.781 21.1094 314.742 21.4727 315.398 22.1992C316.055 22.9258 316.383 23.8164 316.383 24.8711C316.383 25.9258 316.055 26.8047 315.398 27.5078C314.742 28.2109 313.781 28.5625 312.516 28.5625C311.25 28.5625 310.289 28.2109 309.633 27.5078C309 26.8047 308.684 25.9258 308.684 24.8711ZM329.355 73V39.9883H323.344V34.9609H329.355V31.0586C329.355 26.9805 330.445 23.8281 332.625 21.6016C334.805 19.375 337.887 18.2617 341.871 18.2617C343.371 18.2617 344.859 18.4609 346.336 18.8594L345.984 24.1328C344.883 23.9219 343.711 23.8164 342.469 23.8164C340.359 23.8164 338.73 24.4375 337.582 25.6797C336.434 26.8984 335.859 28.6563 335.859 30.9531V34.9609H343.98V39.9883H335.859V73H329.355ZM363.633 63.4727L372.492 34.9609H379.453L364.16 78.8711C361.793 85.1992 358.031 88.3633 352.875 88.3633L351.645 88.2578L349.219 87.8008V82.5273L350.977 82.668C353.18 82.668 354.891 82.2227 356.109 81.332C357.352 80.4414 358.371 78.8125 359.168 76.4453L360.609 72.5781L347.039 34.9609H354.141L363.633 63.4727Z" fill="#F24088"/>
<path d="M35 3.19615C40.5692 -0.019239 47.4308 -0.0192379 53 3.19615L78.3013 17.8038C83.8705 21.0192 87.3013 26.9615 87.3013 33.3923V62.6077C87.3013 69.0385 83.8705 74.9808 78.3013 78.1962L53 92.8038C47.4308 96.0192 40.5692 96.0192 35 92.8038L9.69873 78.1962C4.12951 74.9808 0.69873 69.0385 0.69873 62.6077V33.3923C0.69873 26.9615 4.12951 21.0192 9.69873 17.8038L35 3.19615Z" fill="#F24088"/>
<path d="M27.7764 72V22.2344H44.0459C49.4463 22.2344 53.5023 23.3509 56.2139 25.584C58.9482 27.8171 60.3154 31.1211 60.3154 35.4961C60.3154 37.8203 59.6546 39.8825 58.333 41.6826C57.0114 43.46 55.2113 44.8385 52.9326 45.8184C55.6214 46.5703 57.7406 48.0059 59.29 50.125C60.8623 52.2214 61.6484 54.7279 61.6484 57.6445C61.6484 62.1107 60.2015 65.6198 57.3076 68.1719C54.4137 70.724 50.3236 72 45.0371 72H27.7764ZM34.3389 48.7236V66.6338H45.1738C48.2272 66.6338 50.6312 65.8477 52.3857 64.2754C54.1631 62.6803 55.0518 60.4928 55.0518 57.7129C55.0518 51.7201 51.7933 48.7236 45.2764 48.7236H34.3389ZM34.3389 43.46H44.251C47.1221 43.46 49.4121 42.7422 51.1211 41.3066C52.8529 39.8711 53.7188 37.9229 53.7188 35.4619C53.7188 32.7275 52.9212 30.7451 51.3262 29.5146C49.7311 28.2614 47.3044 27.6348 44.0459 27.6348H34.3389V43.46Z" fill="white"/>
</svg>
