<svg width="320" height="320" viewBox="0 0 320 320" fill="none" xmlns="http://www.w3.org/2000/svg">
<rect width="320" height="320" fill="#F24088"/>
<path d="M166 20.3923L277.904 85C281.617 87.1436 283.904 91.1051 283.904 95.3923V224.608C283.904 228.895 281.617 232.856 277.904 235L166 299.608C162.287 301.751 157.713 301.751 154 299.608L42.0962 235C38.3834 232.856 36.0962 228.895 36.0962 224.608V95.3923C36.0962 91.1051 38.3834 87.1436 42.0962 85L154 20.3923C157.713 18.2487 162.287 18.2487 166 20.3923Z" fill="#F24088" stroke="white" stroke-width="12"/>
<path d="M111.329 232V82.7031H160.138C176.339 82.7031 188.507 86.0527 196.642 92.752C204.845 99.4512 208.946 109.363 208.946 122.488C208.946 129.461 206.964 135.647 202.999 141.048C199.034 146.38 193.634 150.516 186.798 153.455C194.864 155.711 201.222 160.018 205.87 166.375C210.587 172.664 212.945 180.184 212.945 188.934C212.945 202.332 208.604 212.859 199.923 220.516C191.241 228.172 178.971 232 163.111 232H111.329ZM131.017 162.171V215.901H163.521C172.682 215.901 179.894 213.543 185.157 208.826C190.489 204.041 193.155 197.479 193.155 189.139C193.155 171.16 183.38 162.171 163.829 162.171H131.017ZM131.017 146.38H160.753C169.366 146.38 176.236 144.227 181.363 139.92C186.559 135.613 189.156 129.769 189.156 122.386C189.156 114.183 186.764 108.235 181.979 104.544C177.193 100.784 169.913 98.9043 160.138 98.9043H131.017V146.38Z" fill="white"/>
</svg>
