<svg width="88" height="96" viewBox="0 0 88 96" fill="none" xmlns="http://www.w3.org/2000/svg">
<path d="M35 3.19615C40.5692 -0.019239 47.4308 -0.0192379 53 3.19615L78.3013 17.8038C83.8705 21.0192 87.3013 26.9615 87.3013 33.3923V62.6077C87.3013 69.0385 83.8705 74.9808 78.3013 78.1962L53 92.8038C47.4308 96.0192 40.5692 96.0192 35 92.8038L9.69873 78.1962C4.12951 74.9808 0.69873 69.0385 0.69873 62.6077V33.3923C0.69873 26.9615 4.12951 21.0192 9.69873 17.8038L35 3.19615Z" fill="#F24088"/>
<path d="M27.7764 72V22.2344H44.0459C49.4463 22.2344 53.5023 23.3509 56.2139 25.584C58.9482 27.8171 60.3154 31.1211 60.3154 35.4961C60.3154 37.8203 59.6546 39.8825 58.333 41.6826C57.0114 43.46 55.2113 44.8385 52.9326 45.8184C55.6214 46.5703 57.7406 48.0059 59.29 50.125C60.8623 52.2214 61.6484 54.7279 61.6484 57.6445C61.6484 62.1107 60.2015 65.6198 57.3076 68.1719C54.4137 70.724 50.3236 72 45.0371 72H27.7764ZM34.3389 48.7236V66.6338H45.1738C48.2272 66.6338 50.6312 65.8477 52.3857 64.2754C54.1631 62.6803 55.0518 60.4928 55.0518 57.7129C55.0518 51.7201 51.7933 48.7236 45.2764 48.7236H34.3389ZM34.3389 43.46H44.251C47.1221 43.46 49.4121 42.7422 51.1211 41.3066C52.8529 39.8711 53.7188 37.9229 53.7188 35.4619C53.7188 32.7275 52.9212 30.7451 51.3262 29.5146C49.7311 28.2614 47.3044 27.6348 44.0459 27.6348H34.3389V43.46Z" fill="white"/>
</svg>
