<svg width="282" height="96" viewBox="0 0 282 96" fill="none" xmlns="http://www.w3.org/2000/svg">
<path d="M35 3.19615C40.5692 -0.019239 47.4308 -0.0192379 53 3.19615L78.3013 17.8038C83.8705 21.0192 87.3013 26.9615 87.3013 33.3923V62.6077C87.3013 69.0385 83.8705 74.9808 78.3013 78.1962L53 92.8038C47.4308 96.0192 40.5692 96.0192 35 92.8038L9.69873 78.1962C4.12951 74.9808 0.69873 69.0385 0.69873 62.6077V33.3923C0.69873 26.9615 4.12951 21.0192 9.69873 17.8038L35 3.19615Z" fill="#F24088"/>
<path d="M27.0586 72V22.2344H44.1143C49.7425 22.2344 54.0264 23.3623 56.9658 25.6182C59.9053 27.874 61.375 31.235 61.375 35.7012C61.375 37.9798 60.7598 40.0306 59.5293 41.8535C58.2988 43.6764 56.4987 45.0892 54.1289 46.0918C56.8177 46.821 58.8913 48.1995 60.3496 50.2275C61.8307 52.2327 62.5713 54.6481 62.5713 57.4736C62.5713 62.1449 61.0674 65.7337 58.0596 68.2402C55.0745 70.7467 50.7907 72 45.208 72H27.0586ZM35.7061 49.5439V65.0957H45.3105C48.0221 65.0957 50.1413 64.4235 51.668 63.0791C53.1947 61.7347 53.958 59.8662 53.958 57.4736C53.958 52.3011 51.3148 49.6579 46.0283 49.5439H35.7061ZM35.7061 43.1865H44.1826C46.8714 43.1865 48.9678 42.5827 50.4717 41.375C51.9984 40.1445 52.7617 38.4128 52.7617 36.1797C52.7617 33.7188 52.0553 31.9414 50.6426 30.8477C49.2526 29.7539 47.0765 29.207 44.1143 29.207H35.7061V43.1865Z" fill="white"/>
<path d="M229 3.19615C234.569 -0.019239 241.431 -0.0192379 247 3.19615L272.301 17.8038C277.87 21.0192 281.301 26.9615 281.301 33.3923V62.6077C281.301 69.0385 277.87 74.9808 272.301 78.1962L247 92.8038C241.431 96.0192 234.569 96.0192 229 92.8038L203.699 78.1962C198.13 74.9808 194.699 69.0385 194.699 62.6077V33.3923C194.699 26.9615 198.13 21.0192 203.699 17.8038L229 3.19615Z" fill="#33BA91"/>
<path d="M257.536 72H248.889L226.706 36.6924V72H218.059V22.2344H226.706L248.957 57.6787V22.2344H257.536V72Z" fill="white"/>
<path d="M131 3.19615C136.569 -0.019239 143.431 -0.0192379 149 3.19615L174.301 17.8038C179.87 21.0192 183.301 26.9615 183.301 33.3923V62.6077C183.301 69.0385 179.87 74.9808 174.301 78.1962L149 92.8038C143.431 96.0192 136.569 96.0192 131 92.8038L105.699 78.1962C100.13 74.9808 96.6987 69.0385 96.6987 62.6077V33.3923C96.6987 26.9615 100.13 21.0192 105.699 17.8038L131 3.19615Z" fill="#0594CB"/>
<path d="M125.27 22.2344L139.625 60.3789L153.946 22.2344H165.123V72H156.51V55.5938L157.364 33.6504L142.667 72H136.48L121.817 33.6846L122.672 55.5938V72H114.059V22.2344H125.27Z" fill="white"/>
</svg>
