<svg width="263" height="54" viewBox="0 0 263 54" fill="none" xmlns="http://www.w3.org/2000/svg">
<circle cx="27" cy="27" r="27" fill="#F24088"/>
<path d="M15.8564 43V11.0078H27.0625C30.9443 11.0078 33.8887 11.7549 35.8955 13.249C37.9023 14.7285 38.9058 16.9038 38.9058 19.7749C38.9058 21.3423 38.5029 22.7266 37.6973 23.9277C36.8916 25.1143 35.771 25.9858 34.3354 26.5425C35.9761 26.9526 37.2651 27.7803 38.2026 29.0254C39.1548 30.2705 39.6309 31.7939 39.6309 33.5957C39.6309 36.6719 38.6494 39.001 36.6865 40.583C34.7236 42.165 31.9258 42.9707 28.293 43H15.8564ZM22.4482 29.0693V37.7046H28.0952C29.6479 37.7046 30.8564 37.3384 31.7207 36.606C32.5996 35.8589 33.0391 34.8335 33.0391 33.5298C33.0391 30.6001 31.5229 29.1133 28.4907 29.0693H22.4482ZM22.4482 24.4111H27.3262C30.6514 24.3525 32.314 23.0269 32.314 20.4341C32.314 18.9839 31.8892 17.9438 31.0396 17.314C30.2046 16.6694 28.8789 16.3472 27.0625 16.3472H22.4482V24.4111Z" fill="white"/>
<rect x="63" width="200" height="54" fill="#F24088"/>
<path d="M76.8564 42V10.0078H88.0625C91.9443 10.0078 94.8887 10.7549 96.8955 12.249C98.9023 13.7285 99.9058 15.9038 99.9058 18.7749C99.9058 20.3423 99.5029 21.7266 98.6973 22.9277C97.8916 24.1143 96.771 24.9858 95.3354 25.5425C96.9761 25.9526 98.2651 26.7803 99.2026 28.0254C100.155 29.2705 100.631 30.7939 100.631 32.5957C100.631 35.6719 99.6494 38.001 97.6865 39.583C95.7236 41.165 92.9258 41.9707 89.293 42H76.8564ZM83.4482 28.0693V36.7046H89.0952C90.6479 36.7046 91.8564 36.3384 92.7207 35.606C93.5996 34.8589 94.0391 33.8335 94.0391 32.5298C94.0391 29.6001 92.5229 28.1133 89.4907 28.0693H83.4482ZM83.4482 23.4111H88.3262C91.6514 23.3525 93.314 22.0269 93.314 19.4341C93.314 17.9839 92.8892 16.9438 92.0396 16.314C91.2046 15.6694 89.8789 15.3472 88.0625 15.3472H83.4482V23.4111ZM116.122 42.4395C112.635 42.4395 109.793 41.3701 107.596 39.2314C105.414 37.0928 104.322 34.2437 104.322 30.6841V30.0688C104.322 27.6812 104.784 25.5498 105.707 23.6748C106.629 21.7852 107.933 20.335 109.618 19.3242C111.317 18.2988 113.25 17.7861 115.418 17.7861C118.67 17.7861 121.227 18.8115 123.087 20.8623C124.962 22.9131 125.899 25.8208 125.899 29.5854V32.1782H110.76C110.965 33.731 111.581 34.9761 112.606 35.9136C113.646 36.8511 114.957 37.3198 116.539 37.3198C118.985 37.3198 120.897 36.4336 122.274 34.6611L125.394 38.1548C124.442 39.5024 123.153 40.5571 121.527 41.3188C119.901 42.0659 118.099 42.4395 116.122 42.4395ZM115.396 22.9277C114.137 22.9277 113.111 23.3525 112.32 24.2021C111.544 25.0518 111.046 26.2676 110.826 27.8496H119.659V27.3442C119.63 25.938 119.249 24.854 118.517 24.0923C117.784 23.3159 116.744 22.9277 115.396 22.9277ZM137.127 12.3809V18.2256H141.192V22.8838H137.127V34.749C137.127 35.6279 137.296 36.2578 137.633 36.6387C137.97 37.0195 138.614 37.21 139.566 37.21C140.27 37.21 140.892 37.1587 141.434 37.0562V41.8682C140.189 42.249 138.907 42.4395 137.589 42.4395C133.136 42.4395 130.865 40.1909 130.777 35.6938V22.8838H127.306V18.2256H130.777V12.3809H137.127ZM152.333 12.3809V18.2256H156.397V22.8838H152.333V34.749C152.333 35.6279 152.501 36.2578 152.838 36.6387C153.175 37.0195 153.819 37.21 154.771 37.21C155.475 37.21 156.097 37.1587 156.639 37.0562V41.8682C155.394 42.249 154.112 42.4395 152.794 42.4395C148.341 42.4395 146.07 40.1909 145.982 35.6938V22.8838H142.511V18.2256H145.982V12.3809H152.333ZM170.877 42.4395C167.391 42.4395 164.549 41.3701 162.352 39.2314C160.169 37.0928 159.078 34.2437 159.078 30.6841V30.0688C159.078 27.6812 159.54 25.5498 160.462 23.6748C161.385 21.7852 162.689 20.335 164.374 19.3242C166.073 18.2988 168.006 17.7861 170.174 17.7861C173.426 17.7861 175.982 18.8115 177.843 20.8623C179.718 22.9131 180.655 25.8208 180.655 29.5854V32.1782H165.516C165.721 33.731 166.336 34.9761 167.362 35.9136C168.402 36.8511 169.713 37.3198 171.295 37.3198C173.741 37.3198 175.653 36.4336 177.03 34.6611L180.15 38.1548C179.198 39.5024 177.909 40.5571 176.283 41.3188C174.657 42.0659 172.855 42.4395 170.877 42.4395ZM170.152 22.9277C168.893 22.9277 167.867 23.3525 167.076 24.2021C166.3 25.0518 165.802 26.2676 165.582 27.8496H174.415V27.3442C174.386 25.938 174.005 24.854 173.272 24.0923C172.54 23.3159 171.5 22.9277 170.152 22.9277ZM197.64 24.1802C196.776 24.063 196.014 24.0044 195.355 24.0044C192.953 24.0044 191.378 24.8174 190.631 26.4434V42H184.281V18.2256H190.279L190.455 21.0601C191.729 18.8774 193.495 17.7861 195.75 17.7861C196.454 17.7861 197.113 17.8813 197.728 18.0718L197.64 24.1802ZM207.418 42H201.046V18.2256H207.418V42ZM200.672 12.0732C200.672 11.1211 200.987 10.3374 201.617 9.72217C202.262 9.10693 203.133 8.79932 204.232 8.79932C205.316 8.79932 206.18 9.10693 206.825 9.72217C207.469 10.3374 207.792 11.1211 207.792 12.0732C207.792 13.04 207.462 13.8311 206.803 14.4463C206.158 15.0615 205.301 15.3691 204.232 15.3691C203.163 15.3691 202.298 15.0615 201.639 14.4463C200.995 13.8311 200.672 13.04 200.672 12.0732ZM214.405 42V22.8838H210.868V18.2256H214.405V16.2041C214.405 13.5381 215.167 11.4727 216.69 10.0078C218.229 8.52832 220.375 7.78857 223.128 7.78857C224.007 7.78857 225.084 7.93506 226.358 8.22803L226.292 13.1499C225.765 13.0181 225.121 12.9521 224.359 12.9521C221.971 12.9521 220.777 14.0728 220.777 16.314V18.2256H225.501V22.8838H220.777V42H214.405ZM237.674 33.0132L242.069 18.2256H248.88L239.322 45.6914L238.795 46.9438C237.374 50.0493 235.03 51.6021 231.764 51.6021C230.841 51.6021 229.903 51.4629 228.951 51.1846V46.3726L229.918 46.3945C231.119 46.3945 232.013 46.2114 232.599 45.8452C233.199 45.479 233.668 44.8711 234.005 44.0215L234.752 42.0659L226.424 18.2256H233.258L237.674 33.0132Z" fill="white"/>
</svg>
