<svg width="327" height="78" viewBox="0 0 327 78" fill="none" xmlns="http://www.w3.org/2000/svg">
<path d="M320.99 78V69.4688H323.779C324.705 69.4688 325.4 69.6602 325.865 70.043C326.334 70.4258 326.568 70.9922 326.568 71.7422C326.568 72.1406 326.455 72.4941 326.229 72.8027C326.002 73.1074 325.693 73.3438 325.303 73.5117C325.764 73.6406 326.127 73.8867 326.393 74.25C326.662 74.6094 326.797 75.0391 326.797 75.5391C326.797 76.3047 326.549 76.9062 326.053 77.3438C325.557 77.7812 324.855 78 323.949 78H320.99ZM322.115 74.0098V77.0801H323.973C324.496 77.0801 324.908 76.9453 325.209 76.6758C325.514 76.4023 325.666 76.0273 325.666 75.5508C325.666 74.5234 325.107 74.0098 323.99 74.0098H322.115ZM322.115 73.1074H323.814C324.307 73.1074 324.699 72.9844 324.992 72.7383C325.289 72.4922 325.438 72.1582 325.438 71.7363C325.438 71.2676 325.301 70.9277 325.027 70.7168C324.754 70.502 324.338 70.3945 323.779 70.3945H322.115V73.1074Z" fill="white"/>
<circle cx="27" cy="27" r="27" fill="#F24088"/>
<path d="M16.7134 43V11.0078H27.1724C30.644 11.0078 33.2515 11.7256 34.9946 13.1611C36.7524 14.5967 37.6313 16.7207 37.6313 19.5332C37.6313 21.0273 37.2065 22.353 36.3569 23.5103C35.5073 24.6528 34.3501 25.5391 32.8853 26.1689C34.6138 26.6523 35.9761 27.5752 36.9722 28.9375C37.9829 30.2852 38.4883 31.8965 38.4883 33.7715C38.4883 36.6426 37.5581 38.8984 35.6978 40.5391C33.8374 42.1797 31.208 43 27.8096 43H16.7134ZM20.9321 28.0366V39.5503H27.8975C29.8604 39.5503 31.4058 39.0449 32.5337 38.0342C33.6763 37.0088 34.2476 35.6025 34.2476 33.8154C34.2476 29.9629 32.1528 28.0366 27.9634 28.0366H20.9321ZM20.9321 24.6528H27.3042C29.1499 24.6528 30.6221 24.1914 31.7207 23.2686C32.834 22.3457 33.3906 21.0933 33.3906 19.5112C33.3906 17.7534 32.8779 16.479 31.8525 15.688C30.8271 14.8823 29.2671 14.4795 27.1724 14.4795H20.9321V24.6528Z" fill="white"/>
<circle cx="128" cy="27" r="27" fill="#30DF8B"/>
<path d="M140.301 43H136.06L119.954 18.3467V43H115.713V11.0078H119.954L136.104 35.771V11.0078H140.301V43Z" fill="white"/>
<circle cx="77" cy="27" r="27" fill="#7F54FA"/>
<path d="M66.1626 11.0078L76.6216 37.1113L87.0806 11.0078H92.5518V43H88.333V30.5415L88.7285 17.0942L78.2256 43H74.9956L64.5146 17.1602L64.9321 30.5415V43H60.7134V11.0078H66.1626Z" fill="white"/>
</svg>
