<svg width="437" height="128" viewBox="0 0 437 128" fill="none" xmlns="http://www.w3.org/2000/svg">
<path fill-rule="evenodd" clip-rule="evenodd" d="M71.0889 15.9197L107.111 34.4039C109.207 35.4794 110.946 37.0213 112.155 38.8757C113.364 40.7301 114 42.8319 114 44.9711V82.8703C114 85.235 113.287 87.5571 111.934 89.5986C110.581 91.64 108.637 93.3273 106.302 94.4875L70.5505 112.25C68.2185 113.408 65.585 114.011 62.9089 114C60.2328 113.989 57.6059 113.363 55.2865 112.186L22.3625 95.4654C19.8208 94.1745 17.7095 92.3155 16.2414 90.0756C14.7733 87.8356 14.0002 85.2939 14 82.7064V46.7407C13.9997 44.1353 14.7546 41.5731 16.1929 39.2976C17.6312 37.0222 19.7052 35.109 22.2176 33.74L54.5844 16.1113C57.0581 14.7643 59.8999 14.035 62.8066 14.0012C65.7133 13.9675 68.5758 14.6305 71.0889 15.9197Z" fill="#F24088" stroke="#C9177E" stroke-width="27"/>
<path d="M39.9609 80V45.875H51.1172C54.8203 45.875 57.6016 46.6406 59.4609 48.1719C61.3359 49.7031 62.2734 51.9688 62.2734 54.9688C62.2734 56.5625 61.8203 57.9766 60.9141 59.2109C60.0078 60.4297 58.7734 61.375 57.2109 62.0469C59.0547 62.5625 60.5078 63.5469 61.5703 65C62.6484 66.4375 63.1875 68.1562 63.1875 70.1562C63.1875 73.2188 62.1953 75.625 60.2109 77.375C58.2266 79.125 55.4219 80 51.7969 80H39.9609ZM44.4609 64.0391V76.3203H51.8906C53.9844 76.3203 55.6328 75.7812 56.8359 74.7031C58.0547 73.6094 58.6641 72.1094 58.6641 70.2031C58.6641 66.0938 56.4297 64.0391 51.9609 64.0391H44.4609ZM44.4609 60.4297H51.2578C53.2266 60.4297 54.7969 59.9375 55.9688 58.9531C57.1562 57.9688 57.75 56.6328 57.75 54.9453C57.75 53.0703 57.2031 51.7109 56.1094 50.8672C55.0156 50.0078 53.3516 49.5781 51.1172 49.5781H44.4609V60.4297ZM79.7109 80.4688C76.2734 80.4688 73.4766 79.3438 71.3203 77.0938C69.1641 74.8281 68.0859 71.8047 68.0859 68.0234V67.2266C68.0859 64.7109 68.5625 62.4688 69.5156 60.5C70.4844 58.5156 71.8281 56.9688 73.5469 55.8594C75.2812 54.7344 77.1562 54.1719 79.1719 54.1719C82.4688 54.1719 85.0312 55.2578 86.8594 57.4297C88.6875 59.6016 89.6016 62.7109 89.6016 66.7578V68.5625H72.4219C72.4844 71.0625 73.2109 73.0859 74.6016 74.6328C76.0078 76.1641 77.7891 76.9297 79.9453 76.9297C81.4766 76.9297 82.7734 76.6172 83.8359 75.9922C84.8984 75.3672 85.8281 74.5391 86.625 73.5078L89.2734 75.5703C87.1484 78.8359 83.9609 80.4688 79.7109 80.4688ZM79.1719 57.7344C77.4219 57.7344 75.9531 58.375 74.7656 59.6562C73.5781 60.9219 72.8438 62.7031 72.5625 65H85.2656V64.6719C85.1406 62.4688 84.5469 60.7656 83.4844 59.5625C82.4219 58.3438 80.9844 57.7344 79.1719 57.7344Z" fill="white"/>
<rect x="137" y="20" width="300" height="85" fill="#F24088"/>
<path d="M157.941 87V35.8125H174.676C180.23 35.8125 184.402 36.9609 187.191 39.2578C190.004 41.5547 191.41 44.9531 191.41 49.4531C191.41 51.8438 190.73 53.9648 189.371 55.8164C188.012 57.6445 186.16 59.0625 183.816 60.0703C186.582 60.8438 188.762 62.3203 190.355 64.5C191.973 66.6562 192.781 69.2344 192.781 72.2344C192.781 76.8281 191.293 80.4375 188.316 83.0625C185.34 85.6875 181.133 87 175.695 87H157.941ZM164.691 63.0586V81.4805H175.836C178.977 81.4805 181.449 80.6719 183.254 79.0547C185.082 77.4141 185.996 75.1641 185.996 72.3047C185.996 66.1406 182.645 63.0586 175.941 63.0586H164.691ZM164.691 57.6445H174.887C177.84 57.6445 180.195 56.9062 181.953 55.4297C183.734 53.9531 184.625 51.9492 184.625 49.418C184.625 46.6055 183.805 44.5664 182.164 43.3008C180.523 42.0117 178.027 41.3672 174.676 41.3672H164.691V57.6445ZM217.566 87.7031C212.41 87.7031 208.215 86.0156 204.98 82.6406C201.746 79.2422 200.129 74.707 200.129 69.0352V67.8398C200.129 64.0664 200.844 60.7031 202.273 57.75C203.727 54.7734 205.742 52.4531 208.32 50.7891C210.922 49.1016 213.734 48.2578 216.758 48.2578C221.703 48.2578 225.547 49.8867 228.289 53.1445C231.031 56.4023 232.402 61.0664 232.402 67.1367V69.8438H206.633C206.727 73.5938 207.816 76.6289 209.902 78.9492C212.012 81.2461 214.684 82.3945 217.918 82.3945C220.215 82.3945 222.16 81.9258 223.754 80.9883C225.348 80.0508 226.742 78.8086 227.938 77.2617L231.91 80.3555C228.723 85.2539 223.941 87.7031 217.566 87.7031ZM216.758 53.6016C214.133 53.6016 211.93 54.5625 210.148 56.4844C208.367 58.3828 207.266 61.0547 206.844 64.5H225.898V64.0078C225.711 60.7031 224.82 58.1484 223.227 56.3438C221.633 54.5156 219.477 53.6016 216.758 53.6016ZM248.785 39.75V48.9609H255.887V53.9883H248.785V77.5781C248.785 79.1016 249.102 80.25 249.734 81.0234C250.367 81.7734 251.445 82.1484 252.969 82.1484C253.719 82.1484 254.75 82.0078 256.062 81.7266V87C254.352 87.4688 252.688 87.7031 251.07 87.7031C248.164 87.7031 245.973 86.8242 244.496 85.0664C243.02 83.3086 242.281 80.8125 242.281 77.5781V53.9883H235.355V48.9609H242.281V39.75H248.785ZM272.34 39.75V48.9609H279.441V53.9883H272.34V77.5781C272.34 79.1016 272.656 80.25 273.289 81.0234C273.922 81.7734 275 82.1484 276.523 82.1484C277.273 82.1484 278.305 82.0078 279.617 81.7266V87C277.906 87.4688 276.242 87.7031 274.625 87.7031C271.719 87.7031 269.527 86.8242 268.051 85.0664C266.574 83.3086 265.836 80.8125 265.836 77.5781V53.9883H258.91V48.9609H265.836V39.75H272.34ZM302.855 87.7031C297.699 87.7031 293.504 86.0156 290.27 82.6406C287.035 79.2422 285.418 74.707 285.418 69.0352V67.8398C285.418 64.0664 286.133 60.7031 287.562 57.75C289.016 54.7734 291.031 52.4531 293.609 50.7891C296.211 49.1016 299.023 48.2578 302.047 48.2578C306.992 48.2578 310.836 49.8867 313.578 53.1445C316.32 56.4023 317.691 61.0664 317.691 67.1367V69.8438H291.922C292.016 73.5938 293.105 76.6289 295.191 78.9492C297.301 81.2461 299.973 82.3945 303.207 82.3945C305.504 82.3945 307.449 81.9258 309.043 80.9883C310.637 80.0508 312.031 78.8086 313.227 77.2617L317.199 80.3555C314.012 85.2539 309.23 87.7031 302.855 87.7031ZM302.047 53.6016C299.422 53.6016 297.219 54.5625 295.438 56.4844C293.656 58.3828 292.555 61.0547 292.133 64.5H311.188V64.0078C311 60.7031 310.109 58.1484 308.516 56.3438C306.922 54.5156 304.766 53.6016 302.047 53.6016ZM343.637 54.7969C342.652 54.6328 341.586 54.5508 340.438 54.5508C336.172 54.5508 333.277 56.3672 331.754 60V87H325.25V48.9609H331.578L331.684 53.3555C333.816 49.957 336.84 48.2578 340.754 48.2578C342.02 48.2578 342.98 48.4219 343.637 48.75V54.7969ZM356.715 87H350.211V48.9609H356.715V87ZM349.684 38.8711C349.684 37.8164 350 36.9258 350.633 36.1992C351.289 35.4727 352.25 35.1094 353.516 35.1094C354.781 35.1094 355.742 35.4727 356.398 36.1992C357.055 36.9258 357.383 37.8164 357.383 38.8711C357.383 39.9258 357.055 40.8047 356.398 41.5078C355.742 42.2109 354.781 42.5625 353.516 42.5625C352.25 42.5625 351.289 42.2109 350.633 41.5078C350 40.8047 349.684 39.9258 349.684 38.8711ZM370.355 87V53.9883H364.344V48.9609H370.355V45.0586C370.355 40.9805 371.445 37.8281 373.625 35.6016C375.805 33.375 378.887 32.2617 382.871 32.2617C384.371 32.2617 385.859 32.4609 387.336 32.8594L386.984 38.1328C385.883 37.9219 384.711 37.8164 383.469 37.8164C381.359 37.8164 379.73 38.4375 378.582 39.6797C377.434 40.8984 376.859 42.6562 376.859 44.9531V48.9609H384.98V53.9883H376.859V87H370.355ZM404.633 77.4727L413.492 48.9609H420.453L405.16 92.8711C402.793 99.1992 399.031 102.363 393.875 102.363L392.645 102.258L390.219 101.801V96.5273L391.977 96.668C394.18 96.668 395.891 96.2227 397.109 95.332C398.352 94.4414 399.371 92.8125 400.168 90.4453L401.609 86.5781L388.039 48.9609H395.141L404.633 77.4727Z" fill="white"/>
</svg>
