<svg width="32" height="32" viewBox="0 0 32 32" fill="none" xmlns="http://www.w3.org/2000/svg">
<circle cx="16" cy="16" r="16" fill="#F24088"/>
<path d="M9.47559 27V5.67188H16.4482C18.7627 5.67188 20.501 6.15039 21.6631 7.10742C22.835 8.06445 23.4209 9.48047 23.4209 11.3555C23.4209 12.3516 23.1377 13.2354 22.5713 14.0068C22.0049 14.7686 21.2334 15.3594 20.2568 15.7793C21.4092 16.1016 22.3174 16.7168 22.9814 17.625C23.6553 18.5234 23.9922 19.5977 23.9922 20.8477C23.9922 22.7617 23.3721 24.2656 22.1318 25.3594C20.8916 26.4531 19.1387 27 16.873 27H9.47559ZM12.2881 17.0244V24.7002H16.9316C18.2402 24.7002 19.2705 24.3633 20.0225 23.6895C20.7842 23.0059 21.165 22.0684 21.165 20.877C21.165 18.3086 19.7686 17.0244 16.9756 17.0244H12.2881ZM12.2881 14.7686H16.5361C17.7666 14.7686 18.748 14.4609 19.4805 13.8457C20.2227 13.2305 20.5938 12.3955 20.5938 11.3408C20.5938 10.1689 20.252 9.31934 19.5684 8.79199C18.8848 8.25488 17.8447 7.98633 16.4482 7.98633H12.2881V14.7686Z" fill="white"/>
</svg>
