<svg width="100" height="100" viewBox="0 0 100 100" fill="none" xmlns="http://www.w3.org/2000/svg">
<g clip-path="url(#clip0)">
<path d="M78.8667 0H21.1333C9.46172 0 0 9.46166 0 21.1333V78.8666C0 90.5382 9.46172 100 21.1333 100H78.8667C90.5383 100 100 90.5382 100 78.8666V21.1333C100 9.46166 90.5383 0 78.8667 0Z" fill="url(#paint0_linear)"/>
<path fill-rule="evenodd" clip-rule="evenodd" d="M17.8509 16.6433C17.536 16.6482 17.2359 16.7778 17.0163 17.0035C16.7967 17.2292 16.6754 17.5326 16.6791 17.8476V63.0346C16.6772 63.0735 16.6772 63.1126 16.6791 63.1515V81.8224C16.622 82.0322 16.6235 82.2537 16.6833 82.4627C16.7431 82.6717 16.8591 82.8602 17.0185 83.008C17.1662 83.1601 17.3518 83.2704 17.5562 83.3268C17.7606 83.3832 17.9763 83.384 18.1811 83.3291H82.1552C82.313 83.3314 82.4696 83.3022 82.616 83.2434C82.7624 83.1846 82.8956 83.0972 83.008 82.9865C83.1203 82.8757 83.2095 82.7437 83.2704 82.5982C83.3313 82.4526 83.3627 82.2964 83.3627 82.1387C83.3627 81.9809 83.3313 81.8247 83.2704 81.6791C83.2095 81.5336 83.1203 81.4016 83.008 81.2908C82.8956 81.1801 82.7624 81.0927 82.616 81.0339C82.4696 80.9751 82.313 80.9459 82.1552 80.9482H73.8219V48.8053C73.8219 48.4896 73.6965 48.1869 73.4732 47.9636C73.2499 47.7404 72.9472 47.6149 72.6314 47.6148H65.4886C65.1729 47.6149 64.8701 47.7404 64.6468 47.9636C64.4236 48.1869 64.2981 48.4896 64.2981 48.8053V80.9482H59.5362V58.3291C59.5362 58.0134 59.4107 57.7107 59.1875 57.4874C58.9642 57.2642 58.6614 57.1387 58.3457 57.1386H51.2029C50.8871 57.1387 50.5844 57.2642 50.3611 57.4874C50.1379 57.7107 50.0124 58.0134 50.0124 58.3291V80.9482H45.2505V53.5672C45.2505 53.2515 45.125 52.9488 44.9018 52.7255C44.6785 52.5023 44.3757 52.3768 44.06 52.3767H36.9172C36.6014 52.3768 36.2987 52.5023 36.0754 52.7255C35.8522 52.9488 35.7267 53.2515 35.7267 53.5672V80.9482H30.9648V65.472C30.9647 65.1563 30.8393 64.8535 30.6161 64.6303C30.3928 64.407 30.09 64.2815 29.7743 64.2815H22.6314C22.3157 64.2815 22.0129 64.407 21.7897 64.6303C21.5664 64.8535 21.441 65.1563 21.441 65.472V80.9482H19.06V63.6258L40.8885 44.3965L50.8262 52.5997C51.0492 52.7825 51.3309 52.8783 51.6192 52.8691C51.9074 52.8599 52.1825 52.7464 52.3933 52.5497L71.441 34.8646V36.9014C71.4387 37.0592 71.4679 37.2157 71.5267 37.3621C71.5855 37.5085 71.6729 37.6418 71.7836 37.7542C71.8944 37.8665 72.0264 37.9557 72.1719 38.0166C72.3175 38.0775 72.4737 38.1088 72.6314 38.1088C72.7892 38.1088 72.9454 38.0775 73.0909 38.0166C73.2365 37.9557 73.3685 37.8665 73.4792 37.7542C73.59 37.6418 73.6774 37.5085 73.7362 37.3621C73.795 37.2157 73.8241 37.0592 73.8219 36.9014V32.2883C73.8451 32.1205 73.8321 31.9496 73.784 31.7871C73.7358 31.6246 73.6535 31.4743 73.5425 31.3462C73.4316 31.2181 73.2946 31.1151 73.1407 31.0442C72.9868 30.9733 72.8195 30.936 72.65 30.9349V30.9349C72.5974 30.9314 72.5446 30.9314 72.4919 30.9349H67.8695C67.7118 30.9327 67.5551 30.9619 67.4088 31.0207C67.2624 31.0795 67.1291 31.1668 67.0168 31.2776C66.9044 31.3884 66.8152 31.5204 66.7543 31.6659C66.6935 31.8115 66.6621 31.9677 66.6621 32.1254C66.6621 32.2832 66.6935 32.4395 66.7543 32.5851C66.8152 32.7306 66.9044 32.8626 67.0168 32.9734C67.1291 33.0841 67.2624 33.1715 67.4088 33.2303C67.5551 33.2891 67.7118 33.3183 67.8695 33.316H69.5994L51.5377 50.0897L41.6233 41.9005C41.4045 41.721 41.129 41.6252 40.846 41.6305C40.5631 41.6357 40.2913 41.7415 40.0794 41.929L19.06 60.4418V17.8358C19.0619 17.6767 19.0318 17.5189 18.9716 17.3716C18.9115 17.2244 18.8224 17.0906 18.7097 16.9784C18.597 16.8661 18.4629 16.7775 18.3154 16.718C18.1679 16.6584 18.01 16.629 17.8509 16.6315V16.6433ZM66.6791 49.9952H71.441V80.9476H66.6791V49.9952ZM38.1076 54.7571H42.8695V80.9476H38.1076V54.7571ZM52.3933 59.519H57.1552V80.9476H52.3933V59.519ZM23.8219 66.6619H28.5838V80.9476H23.8219V66.6619Z" fill="white"/>
</g>
<defs>
<linearGradient id="paint0_linear" x1="6.51021" y1="1.32599" x2="93.3829" y2="97.0509" gradientUnits="userSpaceOnUse">
<stop stop-color="#FF1679"/>
<stop offset="1" stop-color="#FF770B"/>
</linearGradient>
<clipPath id="clip0">
<rect width="100" height="100" fill="white"/>
</clipPath>
</defs>
</svg>
