<svg width="100" height="100" viewBox="0 0 100 100" fill="none" xmlns="http://www.w3.org/2000/svg">
<g clip-path="url(#clip0)">
<path d="M78.8667 0H21.1333C9.46172 0 0 9.46166 0 21.1333V78.8666C0 90.5382 9.46172 100 21.1333 100H78.8667C90.5383 100 100 90.5382 100 78.8666V21.1333C100 9.46166 90.5383 0 78.8667 0Z" fill="url(#paint0_linear)"/>
<path fill-rule="evenodd" clip-rule="evenodd" d="M47.619 14.2861V23.8704C34.1211 24.4809 23.2889 35.3119 22.6795 48.81H13.0952V51.1909H22.6795C23.2899 64.6881 34.1218 75.5202 47.619 76.1305V85.7147H50V76.1305C63.4973 75.5202 74.3291 64.6881 74.9395 51.1909H84.5238V48.81H74.9395C74.3302 35.3119 63.4979 24.4809 50 23.8704V14.2861H47.619ZM45.3265 19.262L44.1499 19.4381L42.6339 19.6667L42.513 19.6952L41.6992 19.9047L40.5459 20.1975L41.1365 22.5042L42.2898 22.2111L42.992 22.0254H43.0153L44.5127 21.797L45.6893 21.6159L45.3265 19.2628L45.3265 19.262ZM52.1996 19.262L51.8369 21.615L53.0134 21.7959L54.5108 22.0245H54.5341L55.2363 22.2103L56.3896 22.5034L56.9802 20.1967L55.8269 19.9039L55.0131 19.6943L54.8922 19.6657L53.3762 19.4371L52.1997 19.2609L52.1996 19.262ZM38.1696 20.964L37.0536 21.3733L36.8164 21.4614L36.7095 21.5091L34.7889 22.4297L33.7193 22.9507L34.7517 25.0945L35.8212 24.5783L37.6814 23.6808L37.872 23.6116L38.9881 23.2024L38.1697 20.9657L38.1696 20.964ZM59.3564 20.964L58.5379 23.2008L59.654 23.61L59.8447 23.679L61.7048 24.5767L62.7744 25.0929L63.8067 22.9491L62.7372 22.4281L60.8166 21.5073L60.7096 21.4598L60.4725 21.3716L59.3564 20.9624L59.3564 20.964ZM31.5011 24.3309L30.5478 25.0469L29.1667 26.0841L29.0783 26.1483L28.5947 26.5903L27.7158 27.39L29.3155 29.1524L30.1944 28.3526L30.6269 27.9574L31.9754 26.9483L32.9288 26.2367L31.5011 24.3302L31.5011 24.3309ZM66.0249 24.3309L64.5973 26.2374L65.5506 26.9491L66.8992 27.958L67.3317 28.3533L68.2106 29.1531L69.8103 27.3907L68.9314 26.591L68.4477 26.1491L68.3594 26.0848L66.9782 25.0477L66.0249 24.3317V24.3309ZM47.619 26.2514V33.5198H50V26.2514C62.2083 26.8547 71.9553 36.6019 72.5586 48.81H65.2948V51.1909H72.5586C71.9553 63.3992 62.2084 73.1462 50 73.7495V66.4857H47.619V73.7495C35.4107 73.1462 25.6638 63.3992 25.0605 51.1909H32.3242V48.81H25.0605C25.6638 36.6019 35.4107 26.8547 47.619 26.2514ZM25.9626 29.1625L25.1628 30.0507L24.9628 30.2698L24.8884 30.3579L23.6421 32.0273L22.9306 32.9806L24.8373 34.4083L25.5487 33.455L26.7253 31.8739L26.7486 31.8452L26.9253 31.6453L27.7252 30.7664L25.9627 29.1619L25.9626 29.1625ZM71.5634 29.1625L69.801 30.7669L70.6008 31.6457L70.7775 31.8457L70.8009 31.8743L71.9774 33.4555L72.6889 34.4089L74.5954 32.9812L73.8839 32.0279L72.6376 30.3583L72.5632 30.2702L72.3633 30.0512L71.5634 29.1629L71.5634 29.1625ZM21.6006 35.2311L21.0844 36.3007L20.3125 37.9004L20.2706 38.0076L20.0614 38.5796L19.6522 39.6957L21.889 40.5141L22.2982 39.398L22.4749 38.9051L23.2282 37.338L23.7444 36.2637L21.6006 35.2314V35.2311ZM75.9254 35.2311L73.7816 36.2635L74.2978 37.3377L75.0512 38.9048L75.2279 39.3978L75.6371 40.5138L77.8739 39.6954L77.4647 38.5793L77.2554 38.0073L77.2135 37.9004L76.4416 36.3004L75.9254 35.2311V35.2311ZM48.8095 35.7147C40.9335 35.7147 34.5237 42.1245 34.5238 50.0004C34.5239 57.8764 40.9336 64.2861 48.8095 64.2861C56.6854 64.2861 63.0952 57.8764 63.0952 50.0004C63.0953 42.1245 56.6855 35.7147 48.8095 35.7147ZM48.8095 38.0957C55.3988 38.0957 60.7144 43.4114 60.7143 50.0004C60.7142 56.5895 55.3987 61.9052 48.8095 61.9052C42.2204 61.9052 36.9048 56.5895 36.9048 50.0004C36.9047 43.4114 42.2203 38.0957 48.8095 38.0957ZM48.791 40.4766C48.5102 40.4812 48.2428 40.5969 48.0475 40.7984C47.8522 40.9998 47.7449 41.2705 47.7493 41.5508V42.4809C45.673 42.9169 44.0476 44.5922 44.0476 46.7034C44.0476 49.1634 46.2525 51.0514 48.8095 51.0514C50.3559 51.0514 51.4509 52.1012 51.4509 53.2835C51.4509 54.4662 50.356 55.511 48.8095 55.511C47.2631 55.511 46.1682 54.4662 46.1682 53.2835C46.1893 51.8528 44.0273 51.8528 44.0476 53.2835C44.0476 55.4524 45.7067 57.0519 47.7493 57.5107V58.4454C47.7493 58.7262 47.861 58.9955 48.0598 59.1941C48.2586 59.3927 48.5283 59.5042 48.8095 59.5042C49.0907 59.5042 49.3604 59.3927 49.5592 59.1941C49.7581 58.9955 49.8698 58.7262 49.8698 58.4454V57.506C51.946 57.0748 53.5714 55.3991 53.5714 53.2882C53.5714 50.8282 51.3665 48.9402 48.8095 48.9402C47.2631 48.9402 46.1682 47.8904 46.1682 46.708C46.1682 45.5411 47.2402 44.5177 48.7537 44.4898C48.7924 44.492 48.8313 44.492 48.87 44.4898C50.3808 44.5208 51.4509 45.5377 51.4509 46.7034C51.4297 48.1338 53.5917 48.1338 53.5714 46.7034C53.5714 44.5343 51.9124 42.9351 49.8698 42.4763V41.5508C49.872 41.4089 49.8456 41.2679 49.7921 41.1364C49.7387 41.0048 49.6592 40.8855 49.5585 40.7853C49.4579 40.685 49.338 40.6061 49.2061 40.5531C49.0743 40.5001 48.9331 40.474 48.7909 40.4766H48.791ZM18.9174 42.081L18.6198 43.2343L18.4989 43.7086L18.4757 43.8251L18.192 45.6945L18.0106 46.8711L20.3637 47.2338L20.545 46.0573L20.8194 44.2483L20.9264 43.8298L21.224 42.6765L18.9174 42.0813L18.9174 42.081ZM78.6087 42.081L76.3021 42.6762L76.5997 43.8295L76.7067 44.248L76.9811 46.0573L77.1624 47.2335L79.5155 46.8708L79.3341 45.6943L79.0504 43.8251L79.0271 43.7083L78.9062 43.234L78.6086 42.0807L78.6087 42.081ZM20.3637 53.3859L18.0106 53.7439L18.192 54.9161L18.3827 56.1763L18.4059 56.2975L18.6803 57.372L18.9779 58.5204L21.2845 57.9301L20.9868 56.7768L20.7264 55.7627L20.5451 54.563L20.3637 53.3867L20.3637 53.3859ZM77.1624 53.3859L76.9811 54.5624L76.7997 55.7622L76.5393 56.7759L76.2417 57.9292L78.5482 58.5198L78.8458 57.3712L79.1202 56.2969L79.1435 56.1754L79.3342 54.9152L79.5156 53.7433L77.1625 53.3853L77.1624 53.3859ZM21.8564 60.0079L19.708 61.0402L20.2242 62.1145L21.2612 64.2582L21.7774 65.3328L23.9211 64.3001L23.4049 63.2259L22.3726 61.0821L21.8564 60.0079H21.8564ZM75.6697 60.0079L75.1535 61.0821L74.1211 63.2259L73.6049 64.3001L75.7487 65.3328L76.2649 64.2582L77.3019 62.1145L77.8181 61.0402L75.6697 60.0079ZM25.1116 66.0951L23.205 67.5181L23.9212 68.4714L24.7954 69.6482L24.8698 69.7363L25.4837 70.4106L26.2882 71.2941L28.0506 69.6895L27.2461 68.8106L26.6555 68.1549L26.6322 68.1311L25.8277 67.0478L25.1115 66.0945L25.1116 66.0951ZM72.4145 66.0951L71.6983 67.0487L70.8938 68.1319L70.8705 68.1558L70.2799 68.8115L69.4754 69.6904L71.2379 71.2947L72.0424 70.4112L72.6562 69.7369L72.7306 69.6488L73.6049 68.472L74.321 67.519L72.4144 66.096L72.4145 66.0951ZM29.6782 71.2709L28.0785 73.0334L28.9574 73.8332L28.9853 73.857L29.0737 73.9309L30.9524 75.3353L31.9057 76.0514L33.3287 74.1401L32.3754 73.4286L30.5618 72.0754L30.5477 72.0516L29.6781 71.2706L29.6782 71.2709ZM67.8479 71.2709L66.9783 72.0521L66.9642 72.076L65.1506 73.4292L64.1973 74.1407L65.6203 76.052L66.5736 75.3358L68.4523 73.9314L68.5407 73.8576L68.5686 73.8338L69.4475 73.0339L67.8478 71.2715L67.8479 71.2709ZM35.2167 75.1771L34.1797 77.3209L35.2539 77.8371L36.6165 78.4928L36.7234 78.5451L37.5372 78.8427L38.6579 79.2523L39.4764 77.0152L38.3557 76.6059L37.5837 76.3223L36.2863 75.6991L35.2167 75.1783L35.2167 75.1771ZM62.3094 75.1771L61.2398 75.698L59.9424 76.3211L59.1704 76.6048L58.0497 77.014L58.8681 79.2511L59.9889 78.8416L60.8027 78.544L60.9096 78.4916L62.2722 77.836L63.3464 77.3198L62.3094 75.176L62.3094 75.1771ZM41.6434 77.6558L41.0529 79.9623L42.2061 80.2553L42.42 80.3122L42.5409 80.3361L44.6708 80.6616L45.8473 80.8427L46.2054 78.4896L45.0288 78.3085L42.9595 77.9923L42.7967 77.9496L41.6434 77.6566L41.6434 77.6558ZM55.8827 77.6558L54.7294 77.9487L54.5666 77.9917L52.4972 78.308L51.3207 78.4887L51.6788 80.8418L52.8553 80.661L54.9851 80.3352L55.106 80.3114L55.32 80.2567L56.4732 79.9635L55.8826 77.6572L55.8827 77.6558Z" fill="#F9F9F9"/>
</g>
<defs>
<linearGradient id="paint0_linear" x1="12.5804" y1="0.794149" x2="90.8411" y2="97.4834" gradientUnits="userSpaceOnUse">
<stop stop-color="#FFD800"/>
<stop offset="1" stop-color="#FF6100"/>
</linearGradient>
<clipPath id="clip0">
<rect width="100" height="100" fill="white"/>
</clipPath>
</defs>
</svg>
