<svg width="100" height="100" viewBox="0 0 100 100" fill="none" xmlns="http://www.w3.org/2000/svg">
<g clip-path="url(#clip0)">
<path d="M78.8667 0H21.1333C9.46172 0 0 9.46166 0 21.1333V78.8666C0 90.5382 9.46172 100 21.1333 100H78.8667C90.5383 100 100 90.5382 100 78.8666V21.1333C100 9.46166 90.5383 0 78.8667 0Z" fill="url(#paint0_linear)"/>
<path d="M25.0438 16.6722C24.7281 16.6722 24.4253 16.7976 24.2021 17.0208C23.9788 17.2441 23.8534 17.5469 23.8533 17.8627V77.3445L22.6768 78.5306C21.3238 79.8963 21.3331 82.1311 22.6861 83.4968C22.6877 83.4968 22.6892 83.4968 22.6908 83.4968C24.046 84.8518 26.2925 84.8647 27.6433 83.4968L32.5122 78.5861H35.0141H47.6629H70.2819C70.5976 78.5861 70.9004 78.4606 71.1237 78.2373C71.3469 78.0141 71.4724 77.7114 71.4724 77.3956V75.0103C71.4749 74.8508 71.4454 74.6923 71.3855 74.5444C71.3256 74.3966 71.2367 74.2625 71.1239 74.1497C71.0111 74.0369 70.8768 73.9477 70.729 73.8879C70.5812 73.828 70.4228 73.7985 70.2633 73.801C70.107 73.8034 69.9526 73.8365 69.8091 73.8986C69.6656 73.9607 69.5357 74.0505 69.4269 74.1628C69.3181 74.2751 69.2324 74.4077 69.1749 74.5531C69.1173 74.6985 69.089 74.854 69.0914 75.0103V76.2052H47.6629H35.0141H34.8746L36.3115 74.7543L36.3487 74.7923C36.4594 74.9042 36.5912 74.993 36.7365 75.0536C36.8818 75.1143 37.0376 75.1455 37.1951 75.1455C37.3525 75.1455 37.5083 75.1143 37.6536 75.0536C37.7989 74.993 37.9307 74.9042 38.0414 74.7923L40.8595 71.9417C44.0113 73.2081 47.5799 73.0054 50.6391 71.4395C50.6407 71.4395 50.6422 71.4395 50.6438 71.4395H75.0346C75.1924 71.4417 75.349 71.4126 75.4954 71.3537C75.6418 71.2949 75.775 71.2076 75.8874 71.0968C75.9997 70.986 76.0889 70.854 76.1498 70.7085C76.2107 70.563 76.2421 70.4068 76.2421 70.249C76.2421 70.0912 76.2107 69.935 76.1498 69.7895C76.0889 69.6439 75.9997 69.512 75.8874 69.4012C75.775 69.2904 75.6418 69.2031 75.4954 69.1443C75.349 69.0854 75.1924 69.0563 75.0346 69.0585H53.8804C54.5683 68.3314 55.1099 67.5257 55.5824 66.6869H82.1868C82.3446 66.6891 82.5012 66.66 82.6476 66.6011C82.794 66.5423 82.9272 66.455 83.0395 66.3442C83.1519 66.2334 83.2411 66.1014 83.302 65.9559C83.3629 65.8104 83.3942 65.6542 83.3942 65.4964C83.3942 65.3386 83.3629 65.1824 83.302 65.0369C83.2411 64.8913 83.1519 64.7594 83.0395 64.6486C82.9272 64.5378 82.794 64.4505 82.6476 64.3917C82.5012 64.3328 82.3446 64.3037 82.1868 64.3059H80.9963V36.911C80.9963 36.5953 80.8709 36.2926 80.6476 36.0693C80.4244 35.8461 80.1216 35.7206 79.8059 35.7205H75.0439C74.7282 35.7206 74.4254 35.8461 74.2022 36.0693C73.9789 36.2926 73.8535 36.5953 73.8535 36.911V64.3059H71.4725V48.8158C71.4725 48.5 71.347 48.1973 71.1238 47.9741C70.9005 47.7508 70.5978 47.6253 70.282 47.6253H65.5201C65.2044 47.6253 64.9016 47.7508 64.6784 47.9741C64.4551 48.1973 64.3297 48.5 64.3297 48.8158V64.3059H61.9487V44.0539C61.9487 43.7381 61.8232 43.4354 61.6 43.2122C61.3767 42.9889 61.074 42.8634 60.7582 42.8634H55.9963C55.6806 42.8634 55.3778 42.9889 55.1546 43.2122C54.9313 43.4354 54.8059 43.7381 54.8058 44.0539V53.5823C54.4782 53.1433 54.1274 52.7167 53.7316 52.3174C50.7999 49.3582 46.6967 48.3021 42.9011 49.1087V34.544C42.9036 34.3845 42.8741 34.2262 42.8142 34.0784C42.7543 33.9305 42.6653 33.7962 42.5526 33.6834C42.4398 33.5706 42.3055 33.4817 42.1576 33.4218C42.0098 33.3619 41.8514 33.3321 41.6919 33.3346V33.3346C41.5356 33.3371 41.3812 33.3705 41.2377 33.4326C41.0942 33.4947 40.9644 33.5842 40.8556 33.6965C40.7467 33.8088 40.6611 33.9415 40.6035 34.0868C40.546 34.2322 40.5176 34.3874 40.52 34.5437V49.913C39.2221 50.4958 37.9977 51.2913 36.9346 52.3639C33.4987 55.8311 32.6096 60.9054 34.2514 65.1985L31.3682 68.1052C31.1494 68.3279 31.0267 68.6277 31.0267 68.9399C31.0267 69.2522 31.1494 69.552 31.3682 69.7747L29.7918 71.3601L27.9921 73.1787L26.4622 74.7179L26.2343 74.9513V19.0637H59.5676V27.4064C59.5677 27.7221 59.6931 28.025 59.9164 28.2482C60.1396 28.4715 60.4424 28.5968 60.7581 28.5969H69.0915V34.5306V44.0687C69.0892 44.2264 69.1184 44.383 69.1772 44.5294C69.236 44.6758 69.3234 44.8091 69.4341 44.9214C69.5449 45.0338 69.6769 45.123 69.8224 45.1839C69.968 45.2448 70.1242 45.276 70.2819 45.276C70.4397 45.276 70.5959 45.2448 70.7414 45.1839C70.887 45.123 71.019 45.0338 71.1297 44.9214C71.2405 44.8091 71.3278 44.6758 71.3867 44.5294C71.4455 44.383 71.4746 44.2264 71.4724 44.0687V34.5306V27.4809C71.4729 27.4619 71.4729 27.4429 71.4724 27.4238C71.4748 27.2644 71.4452 27.1061 71.3853 26.9584C71.3254 26.8106 71.2364 26.6762 71.1236 26.5635L61.5998 17.0397C61.4871 16.9269 61.3529 16.8379 61.2051 16.778C61.0573 16.7181 60.899 16.6885 60.7395 16.6909C60.6931 16.6882 60.6465 16.6882 60.6 16.6909C60.5296 16.6766 60.458 16.6686 60.3861 16.6671H25.0439L25.0438 16.6722ZM61.9486 20.7457L67.408 26.2053H61.9486V20.7457ZM32.0658 23.8197C31.7501 23.8358 31.4538 23.9768 31.242 24.2113C31.0301 24.4459 30.9201 24.755 30.9362 25.0706C30.9522 25.3863 31.0929 25.6827 31.3274 25.8946C31.5619 26.1065 31.871 26.2166 32.1867 26.2006H34.5676C34.7254 26.2029 34.882 26.1737 35.0284 26.1149C35.1748 26.0561 35.308 25.9687 35.4204 25.858C35.5327 25.7472 35.6219 25.6152 35.6828 25.4697C35.7437 25.3241 35.775 25.1679 35.775 25.0102C35.775 24.8524 35.7437 24.6962 35.6828 24.5507C35.6219 24.4051 35.5327 24.2731 35.4204 24.1624C35.308 24.0516 35.1748 23.9643 35.0284 23.9054C34.882 23.8466 34.7254 23.8175 34.5676 23.8197H32.1867C32.1464 23.8176 32.106 23.8176 32.0658 23.8197V23.8197ZM39.2458 23.8197C38.9302 23.8359 38.6339 23.9768 38.4221 24.2113C38.2103 24.4459 38.1003 24.755 38.1163 25.0706C38.1324 25.3863 38.2731 25.6827 38.5076 25.8946C38.742 26.1065 39.0511 26.2165 39.3667 26.2006H48.8347C48.9925 26.2029 49.1491 26.1737 49.2955 26.1149C49.4419 26.0561 49.5751 25.9687 49.6875 25.858C49.7998 25.7472 49.889 25.6152 49.9499 25.4697C50.0108 25.3241 50.0422 25.1679 50.0422 25.0102C50.0422 24.8524 50.0108 24.6962 49.9499 24.5507C49.889 24.4051 49.7998 24.2731 49.6875 24.1624C49.5751 24.0516 49.4419 23.9643 49.2955 23.9054C49.1491 23.8466 48.9925 23.8175 48.8347 23.8197H39.3667C39.3264 23.8176 39.2861 23.8176 39.2458 23.8197ZM32.0658 28.5816C31.7501 28.5977 31.4538 28.7387 31.242 28.9732C31.0301 29.2078 30.9201 29.5169 30.9362 29.8325C30.9522 30.1482 31.0929 30.4446 31.3274 30.6565C31.5619 30.8684 31.871 30.9785 32.1867 30.9626H34.5676C34.7254 30.9648 34.882 30.9356 35.0284 30.8768C35.1748 30.818 35.308 30.7306 35.4204 30.6199C35.5327 30.5091 35.6219 30.3771 35.6828 30.2316C35.7437 30.086 35.775 29.9298 35.775 29.7721C35.775 29.6143 35.7437 29.4581 35.6828 29.3126C35.6219 29.167 35.5327 29.035 35.4204 28.9243C35.308 28.8135 35.1748 28.7262 35.0284 28.6673C34.882 28.6085 34.7254 28.5794 34.5676 28.5816H32.1867C32.1464 28.5796 32.106 28.5796 32.0658 28.5816V28.5816ZM39.2458 28.5816C38.9302 28.5978 38.6339 28.7387 38.4221 28.9732C38.2103 29.2078 38.1003 29.5169 38.1163 29.8325C38.1324 30.1482 38.2731 30.4446 38.5076 30.6565C38.742 30.8684 39.0511 30.9784 39.3667 30.9626H48.8347C48.9925 30.9648 49.1491 30.9356 49.2955 30.8768C49.4419 30.818 49.5751 30.7306 49.6875 30.6199C49.7998 30.5091 49.889 30.3771 49.9499 30.2316C50.0108 30.086 50.0422 29.9298 50.0422 29.7721C50.0422 29.6143 50.0108 29.4581 49.9499 29.3126C49.889 29.167 49.7998 29.035 49.6875 28.9243C49.5751 28.8135 49.4419 28.7262 49.2955 28.6673C49.1491 28.6085 48.9925 28.5794 48.8347 28.5816H39.3667C39.3264 28.5796 39.2861 28.5796 39.2458 28.5816ZM76.2343 38.1006H78.6152V64.2632H76.2343V38.1006ZM57.1867 45.2435H59.5676V64.2632H57.1867V45.2435ZM66.7105 50.0054H69.0914V64.2632H66.7105V50.0054ZM45.3424 51.2101C47.7733 51.2101 50.2024 52.1376 52.0574 54.0093C53.8475 55.8157 54.7491 58.1628 54.8057 60.529V61.0266C54.7748 62.1413 54.5655 63.2508 54.15 64.3053H52.4248V55.9299C52.4247 55.6141 52.2993 55.3114 52.076 55.0882C51.8528 54.8649 51.55 54.7394 51.2343 54.7394H46.4724C46.1567 54.7394 45.8539 54.8649 45.6306 55.0882C45.4074 55.3114 45.2819 55.6141 45.2819 55.9299V64.3053H42.901V51.5818C43.7038 51.3628 44.5181 51.2122 45.3424 51.2101ZM40.52 52.5909V65.4865C40.521 65.7749 40.6267 66.0531 40.8175 66.2695C41.0082 66.4859 41.271 66.6255 41.557 66.6627C41.603 66.6734 41.6496 66.6814 41.6965 66.6866C41.7012 66.6866 41.7059 66.6866 41.7106 66.6866H52.7411C52.5059 66.9878 52.296 67.3013 52.0203 67.5794C48.2835 71.3487 42.2816 71.3604 38.5716 67.6175C34.8616 63.8739 34.872 57.8234 38.6088 54.0529C39.1914 53.4648 39.8447 52.9979 40.5201 52.5927L40.52 52.5909ZM47.6629 57.1203H50.0438V64.2632H47.6629V57.1203ZM35.3814 67.4303C35.814 68.0937 36.3152 68.7259 36.8928 69.3088C37.4453 69.8664 38.0431 70.3501 38.6692 70.7739L37.195 72.262L33.8933 68.9321L35.3814 67.4303ZM33.0423 71.4575L34.6327 73.0616L25.9506 81.8274C25.9491 81.8274 25.9476 81.8274 25.9461 81.8274C25.4966 82.2855 24.8442 82.2793 24.3789 81.8274C23.9235 81.3636 23.9222 80.6607 24.3697 80.2091L26.8576 77.6982L28.155 76.3912L29.685 74.8519L31.4846 73.0339L33.0425 71.4575H33.0423Z" fill="white"/>
</g>
<defs>
<linearGradient id="paint0_linear" x1="17.2419" y1="18.22" x2="239.6" y2="234.102" gradientUnits="userSpaceOnUse">
<stop stop-color="#24F3D2"/>
<stop offset="0.394" stop-color="#0674F0"/>
<stop offset="0.507" stop-color="#6961B5"/>
<stop offset="0.813" stop-color="#F34660"/>
<stop offset="1" stop-color="#EE078D"/>
</linearGradient>
<clipPath id="clip0">
<rect width="100" height="100" fill="white"/>
</clipPath>
</defs>
</svg>
